<?xml version="1.0" encoding="UTF-8"?>
<svg version="1.1" xmlns="http://www.w3.org/2000/svg" width="500" height="500">
<path d="M0,0 L5,0 L21,13 L28,19 L27,24 L23,28 L20,36 L16,40 L14,40 L18,46 L24,53 L29,52 L33,48 L36,55 L40,56 L47,56 L56,46 L60,42 L64,43 L71,57 L71,59 L80,61 L91,65 L96,68 L113,67 L120,63 L135,59 L149,54 L153,55 L153,66 L150,82 L150,90 L146,94 L146,106 L148,110 L148,116 L154,125 L159,131 L184,132 L188,134 L184,151 L181,161 L177,161 L184,180 L191,182 L200,184 L202,186 L200,188 L212,194 L213,197 L203,205 L197,214 L195,218 L202,218 L206,220 L206,235 L213,232 L217,228 L222,230 L230,237 L240,247 L244,251 L243,255 L231,267 L223,274 L219,277 L211,276 L206,286 L196,293 L192,297 L193,302 L201,312 L208,320 L208,322 L193,330 L191,330 L191,332 L197,334 L202,339 L203,343 L200,362 L200,375 L207,401 L206,408 L200,411 L180,416 L175,420 L164,419 L152,412 L142,407 L134,406 L134,416 L133,425 L128,426 L112,417 L102,419 L88,426 L83,425 L78,424 L71,426 L68,435 L64,443 L60,442 L52,435 L50,434 L36,438 L35,441 L31,440 L30,439 L25,439 L17,455 L11,465 L5,477 L1,479 L-12,456 L-20,439 L-26,438 L-26,440 L-29,441 L-32,437 L-41,435 L-48,435 L-56,443 L-60,442 L-65,430 L-67,426 L-73,424 L-78,425 L-82,426 L-92,421 L-100,418 L-109,417 L-120,424 L-124,426 L-129,425 L-131,407 L-139,407 L-149,412 L-157,418 L-165,420 L-170,420 L-175,416 L-199,410 L-202,407 L-202,396 L-196,375 L-196,370 L-197,367 L-197,360 L-199,350 L-199,339 L-194,334 L-188,331 L-203,323 L-204,319 L-195,309 L-188,300 L-189,296 L-196,289 L-202,284 L-206,276 L-215,277 L-231,262 L-239,255 L-239,251 L-217,229 L-213,228 L-207,233 L-201,235 L-201,220 L-197,218 L-190,218 L-190,214 L-193,214 L-200,204 L-208,197 L-207,194 L-197,189 L-196,184 L-180,181 L-175,167 L-173,163 L-177,162 L-183,138 L-183,133 L-178,132 L-155,131 L-150,126 L-147,123 L-144,117 L-143,109 L-141,106 L-142,93 L-145,91 L-145,84 L-148,68 L-148,55 L-146,54 L-125,61 L-114,64 L-107,68 L-97,68 L-93,69 L-82,63 L-67,59 L-59,43 L-55,42 L-46,51 L-41,57 L-30,56 L-29,48 L-25,50 L-21,54 L-16,49 L-9,41 L-15,36 L-20,26 L-23,22 L-21,18 L-8,6 Z " fill="#4C483D" transform="translate(251,10)"/>
<path d="M0,0 L5,0 L21,13 L28,19 L27,24 L23,28 L20,36 L16,40 L14,40 L18,46 L24,53 L29,52 L33,48 L36,55 L40,56 L47,56 L56,46 L59,43 L62,43 L60,55 L59,66 L61,68 L61,71 L65,69 L69,68 L67,72 L72,73 L81,77 L88,81 L94,90 L96,94 L106,92 L117,92 L120,100 L120,117 L134,117 L140,120 L147,125 L144,128 L142,128 L142,130 L146,132 L153,141 L150,144 L145,145 L148,147 L150,149 L150,152 L152,151 L152,154 L155,156 L164,159 L164,166 L170,179 L173,188 L173,194 L168,197 L164,197 L159,182 L157,174 L156,169 L152,168 L143,154 L131,137 L120,126 L112,119 L103,111 L92,104 L76,95 L77,98 L78,110 L88,117 L90,116 L94,121 L106,130 L114,138 L121,146 L125,151 L128,154 L139,172 L147,189 L153,209 L155,218 L155,234 L153,234 L153,232 L150,233 L148,226 L145,225 L148,224 L148,222 L146,221 L149,221 L149,219 L146,218 L145,212 L143,214 L140,208 L136,189 L133,189 L128,177 L125,177 L122,167 L120,164 L122,159 L118,159 L116,154 L111,152 L98,139 L87,130 L81,126 L75,124 L74,122 L71,121 L71,119 L65,117 L52,111 L37,106 L31,105 L13,104 L12,105 L12,107 L7,105 L-2,105 L-2,107 L-8,109 L-8,117 L-10,121 L-10,116 L-21,119 L-25,119 L-25,121 L-28,122 L-36,122 L-39,120 L-40,125 L-49,129 L-60,135 L-67,135 L-67,137 L-75,143 L-80,147 L-83,147 L-84,153 L-87,156 L-92,157 L-93,160 L-95,161 L-94,168 L-90,168 L-89,173 L-92,175 L-93,178 L-96,178 L-98,169 L-104,179 L-106,185 L-112,184 L-117,176 L-118,175 L-118,182 L-121,185 L-124,185 L-127,198 L-129,202 L-130,208 L-134,207 L-134,199 L-131,193 L-132,186 L-135,179 L-134,172 L-124,156 L-117,147 L-115,147 L-113,143 L-112,141 L-114,141 L-116,145 L-118,145 L-118,147 L-120,147 L-121,151 L-126,150 L-128,155 L-131,166 L-133,166 L-134,171 L-136,171 L-138,176 L-142,186 L-143,187 L-143,192 L-145,192 L-147,202 L-151,230 L-152,235 L-159,235 L-165,238 L-167,240 L-164,242 L-163,247 L-159,251 L-141,251 L-137,256 L-138,260 L-140,260 L-143,256 L-144,257 L-146,258 L-145,262 L-149,262 L-149,259 L-152,259 L-149,276 L-148,285 L-149,288 L-147,288 L-146,294 L-144,294 L-143,299 L-140,305 L-140,308 L-138,308 L-136,311 L-129,321 L-124,328 L-122,330 L-117,336 L-114,338 L-103,338 L-113,328 L-112,324 L-103,335 L-99,339 L-94,339 L-94,342 L-109,344 L-115,345 L-115,347 L-145,351 L-159,353 L-159,356 L-156,356 L-154,359 L-154,380 L-155,381 L-149,382 L-150,376 L-150,358 L-141,358 L-140,362 L-143,365 L-146,366 L-141,375 L-140,380 L-134,379 L-137,375 L-139,367 L-137,365 L-137,357 L-138,355 L-134,356 L-132,355 L-129,358 L-124,354 L-122,354 L-123,359 L-126,369 L-128,377 L-125,378 L-124,372 L-114,370 L-113,376 L-106,376 L-110,368 L-111,362 L-109,356 L-104,352 L-100,354 L-100,374 L-101,375 L-94,376 L-94,355 L-92,354 L-90,350 L-88,350 L-83,350 L-83,352 L-74,354 L-71,357 L-71,363 L-74,368 L-78,370 L-83,370 L-84,355 L-85,355 L-86,374 L-73,372 L-68,368 L-65,359 L-64,359 L-63,364 L-54,364 L-55,360 L-53,360 L-53,346 L-48,345 L-43,348 L-32,351 L-28,356 L-29,363 L-34,367 L-39,369 L-39,371 L-45,373 L-41,366 L-41,350 L-46,350 L-46,372 L-48,374 L-38,374 L-29,371 L-26,370 L-24,365 L-21,355 L-16,350 L-14,351 L-17,355 L-17,363 L-13,369 L-10,371 L0,371 L5,367 L7,363 L7,351 L10,347 L14,349 L15,350 L14,363 L11,373 L18,372 L19,357 L21,357 L29,374 L30,375 L35,358 L37,356 L38,361 L38,372 L37,373 L45,373 L45,361 L46,352 L48,349 L52,351 L52,372 L51,373 L62,375 L60,362 L61,353 L63,349 L71,349 L67,351 L68,352 L68,373 L65,373 L65,375 L73,374 L73,360 L79,365 L86,374 L90,379 L92,380 L92,361 L94,349 L98,354 L98,375 L104,376 L105,363 L109,357 L113,355 L112,357 L112,370 L117,375 L120,376 L129,376 L133,373 L133,359 L135,354 L149,355 L145,357 L141,357 L141,379 L146,379 L146,366 L151,371 L159,381 L160,382 L161,374 L162,374 L162,384 L160,389 L154,389 L149,384 L147,384 L146,386 L134,386 L133,382 L134,375 L126,384 L122,385 L109,383 L105,381 L104,383 L89,383 L89,381 L86,381 L85,383 L79,381 L74,380 L73,381 L24,381 L6,380 L5,372 L-3,378 L-4,380 L-9,380 L-8,382 L28,382 L66,383 L91,384 L92,385 L104,386 L105,384 L106,386 L142,389 L159,391 L166,391 L168,396 L170,397 L170,392 L172,395 L173,399 L169,401 L186,402 L189,405 L189,409 L184,410 L184,408 L186,408 L186,406 L181,407 L183,408 L182,411 L171,410 L160,408 L152,404 L143,403 L140,400 L140,398 L133,398 L133,406 L134,409 L133,425 L128,426 L112,417 L102,419 L88,426 L83,425 L78,424 L71,426 L68,435 L64,443 L60,442 L52,435 L50,434 L36,438 L35,441 L31,440 L30,439 L25,439 L17,455 L11,465 L5,477 L1,479 L-12,456 L-20,439 L-26,438 L-26,440 L-29,441 L-32,437 L-41,435 L-48,435 L-56,443 L-60,442 L-65,430 L-67,426 L-73,424 L-78,425 L-82,426 L-92,421 L-100,418 L-109,417 L-120,424 L-124,426 L-129,425 L-131,407 L-139,407 L-149,412 L-157,418 L-165,420 L-170,420 L-175,416 L-199,410 L-202,407 L-202,396 L-196,375 L-196,370 L-197,367 L-197,360 L-199,350 L-199,339 L-194,334 L-188,331 L-203,323 L-204,319 L-195,309 L-188,300 L-189,296 L-196,289 L-202,284 L-206,276 L-215,277 L-231,262 L-239,255 L-239,251 L-217,229 L-213,228 L-207,233 L-201,235 L-201,220 L-197,218 L-190,218 L-190,214 L-193,214 L-200,204 L-208,197 L-207,194 L-197,189 L-196,184 L-180,181 L-175,167 L-173,163 L-177,162 L-183,138 L-183,133 L-178,132 L-155,131 L-150,126 L-147,123 L-144,117 L-143,109 L-141,106 L-142,93 L-145,91 L-145,84 L-148,68 L-148,55 L-146,54 L-125,61 L-114,64 L-107,68 L-97,68 L-93,69 L-82,63 L-67,59 L-59,43 L-55,42 L-46,51 L-41,57 L-30,56 L-29,48 L-25,50 L-21,54 L-16,49 L-9,41 L-15,36 L-20,26 L-23,22 L-21,18 L-8,6 Z " fill="#432F2A" transform="translate(251,10)"/>
<path d="M0,0 L2,1 L0,7 L0,13 L-9,24 L-31,23 L-30,29 L-38,29 L-38,27 L-48,28 L-60,34 L-71,45 L-75,52 L-62,52 L-59,51 L-40,51 L-40,56 L-36,55 L-37,58 L-42,63 L-50,73 L-55,83 L-59,96 L-59,118 L-55,135 L-48,148 L-39,159 L-30,167 L-15,177 L-17,179 L-13,183 L-12,167 L-11,167 L-10,173 L-10,187 L-6,189 L-1,194 L0,197 L4,199 L7,200 L6,87 L5,84 L12,80 L18,82 L20,84 L20,200 L33,190 L36,186 L36,189 L52,181 L62,175 L72,166 L81,155 L88,140 L86,134 L83,138 L85,129 L89,109 L89,107 L85,89 L80,76 L72,65 L71,62 L76,64 L79,65 L73,57 L67,52 L67,51 L82,50 L93,50 L102,52 L97,44 L92,38 L85,33 L72,28 L65,28 L65,29 L58,29 L57,22 L52,23 L36,23 L34,19 L31,17 L29,6 L27,6 L26,2 L27,1 L36,2 L45,6 L56,6 L58,11 L66,14 L67,16 L74,19 L81,21 L81,23 L88,23 L90,29 L92,30 L92,32 L99,33 L106,36 L107,46 L112,45 L113,49 L115,49 L115,52 L117,52 L120,57 L120,59 L123,60 L125,67 L128,69 L134,59 L135,59 L137,68 L140,72 L138,72 L138,74 L133,75 L132,81 L126,80 L123,74 L121,76 L121,72 L118,72 L119,74 L119,81 L120,86 L124,87 L125,115 L131,117 L130,120 L132,123 L127,127 L123,136 L126,138 L121,143 L119,143 L119,146 L123,147 L123,151 L121,151 L121,153 L123,153 L123,156 L117,155 L117,153 L114,152 L116,152 L116,150 L114,149 L115,147 L113,147 L112,139 L110,140 L107,151 L104,154 L104,157 L104,161 L106,162 L104,165 L95,165 L99,164 L96,160 L96,157 L92,161 L88,160 L89,164 L88,166 L85,167 L88,173 L89,179 L84,178 L85,182 L83,182 L82,175 L80,175 L78,181 L77,185 L73,187 L73,189 L70,189 L69,187 L63,187 L62,199 L59,199 L58,204 L54,204 L53,206 L57,207 L58,209 L64,208 L64,206 L71,207 L75,207 L79,210 L79,207 L81,207 L82,202 L85,203 L85,205 L88,204 L89,201 L91,201 L91,203 L94,203 L93,200 L94,198 L102,198 L102,200 L99,200 L100,204 L96,207 L94,207 L94,214 L89,219 L88,221 L61,221 L35,220 L2,220 L3,224 L-2,223 L-2,224 L-18,223 L-20,222 L-19,225 L25,226 L25,227 L-34,228 L-56,229 L-80,229 L-80,225 L-82,225 L-82,230 L-100,231 L-111,231 L-111,230 L-94,227 L-83,227 L-83,224 L-89,225 L-98,214 L-101,210 L-100,214 L-91,223 L-91,224 L-103,224 L-108,220 L-108,218 L-112,216 L-118,208 L-125,197 L-127,197 L-127,193 L-129,193 L-133,184 L-134,181 L-133,179 L-135,179 L-136,173 L-138,173 L-138,165 L-141,152 L-141,144 L-138,144 L-138,147 L-134,147 L-135,143 L-135,140 L-131,141 L-129,145 L-127,145 L-128,139 L-130,137 L-148,137 L-153,132 L-154,127 L-157,125 L-151,120 L-145,119 L-141,120 L-140,107 L-136,82 L-134,77 L-132,77 L-133,71 L-131,70 L-127,59 L-125,56 L-123,56 L-122,51 L-120,51 L-119,42 L-115,35 L-110,35 L-109,32 L-107,32 L-107,30 L-103,26 L-101,26 L-103,30 L-112,41 L-122,57 L-123,64 L-119,73 L-120,80 L-122,84 L-122,92 L-119,93 L-118,84 L-116,81 L-114,72 L-113,70 L-108,69 L-108,56 L-106,59 L-101,68 L-99,68 L-99,70 L-95,70 L-95,65 L-90,58 L-87,53 L-86,53 L-85,63 L-82,63 L-81,59 L-78,58 L-79,53 L-83,54 L-84,53 L-85,44 L-82,44 L-79,41 L-74,38 L-72,32 L-65,28 L-58,22 L-56,22 L-56,20 L-49,19 L-38,13 L-29,10 L-28,5 L-25,6 L-14,6 L-14,4 L-1,1 Z " fill="#4F5A4A" transform="translate(240,125)"/>
<path d="M0,0 L4,1 L11,15 L11,17 L20,19 L31,23 L36,26 L53,25 L60,21 L75,17 L89,12 L93,13 L93,24 L90,40 L90,48 L86,52 L86,64 L88,68 L88,74 L94,83 L99,89 L124,90 L128,92 L124,109 L121,119 L117,119 L124,138 L131,140 L140,142 L142,144 L140,146 L152,152 L153,155 L143,163 L137,172 L135,176 L142,176 L146,178 L144,179 L144,195 L143,197 L150,196 L154,193 L156,193 L158,189 L162,191 L179,207 L182,210 L157,208 L123,206 L117,205 L109,211 L106,211 L106,208 L104,207 L106,205 L106,199 L104,198 L104,205 L101,208 L91,208 L88,205 L88,197 L89,196 L87,195 L87,193 L95,193 L94,176 L89,156 L83,140 L73,121 L67,112 L67,110 L63,108 L56,100 L45,88 L32,78 L27,75 L17,68 L16,53 L22,55 L32,61 L44,69 L54,78 L69,92 L75,99 L84,112 L93,126 L96,127 L99,134 L102,147 L104,152 L104,155 L112,152 L111,143 L106,130 L103,123 L104,117 L94,115 L91,112 L90,111 L89,107 L84,104 L85,102 L92,100 L86,92 L82,88 L82,86 L86,84 L79,78 L74,76 L60,75 L59,58 L57,50 L42,52 L36,53 L33,48 L29,42 L25,38 L17,34 L7,30 L7,27 L5,28 L3,31 L3,29 L1,29 L-2,24 L0,9 L2,1 Z " fill="#A26E45" transform="translate(311,52)"/>
<path d="M0,0 L9,1 L18,5 L29,5 L31,10 L39,13 L40,15 L47,18 L54,20 L54,22 L61,22 L63,28 L65,29 L65,31 L72,32 L79,35 L80,45 L85,44 L86,48 L88,48 L88,51 L90,51 L93,56 L93,58 L96,59 L98,66 L101,68 L107,58 L108,58 L110,67 L113,71 L111,71 L111,73 L106,74 L105,80 L99,79 L96,73 L94,75 L94,71 L91,71 L92,73 L92,80 L93,85 L97,86 L98,114 L104,116 L103,119 L105,122 L100,126 L96,135 L99,137 L94,142 L92,142 L92,145 L96,146 L96,150 L94,150 L94,152 L96,152 L96,155 L90,154 L90,152 L87,151 L89,151 L89,149 L87,148 L88,146 L86,146 L85,138 L83,139 L80,150 L77,153 L77,156 L77,160 L79,161 L77,164 L68,164 L72,163 L69,159 L69,156 L65,160 L61,159 L62,163 L61,165 L58,166 L61,172 L62,178 L57,177 L58,181 L56,181 L55,174 L53,174 L51,180 L50,184 L46,186 L46,188 L43,188 L42,186 L36,186 L35,198 L32,198 L31,203 L27,203 L26,205 L30,206 L31,208 L37,207 L37,205 L44,206 L48,206 L52,209 L52,206 L54,206 L55,201 L58,202 L58,204 L61,203 L62,200 L64,200 L64,202 L67,202 L66,199 L67,197 L75,197 L75,199 L72,199 L73,203 L69,206 L67,206 L67,213 L62,218 L61,220 L34,220 L8,219 L-14,219 L-15,205 L-15,86 L-20,82 L-15,79 L-9,81 L-7,83 L-7,199 L6,189 L9,185 L9,188 L25,180 L35,174 L45,165 L54,154 L61,139 L59,133 L56,137 L58,128 L62,108 L62,106 L58,88 L53,75 L45,64 L44,61 L49,63 L52,64 L46,56 L40,51 L40,50 L55,49 L66,49 L75,51 L70,43 L65,37 L58,32 L45,27 L38,27 L38,28 L31,28 L30,21 L25,22 L9,22 L7,18 L4,16 L2,5 L0,5 L-1,1 Z " fill="#8DE0E8" transform="translate(267,126)"/>
<path d="M0,0 L2,1 L0,7 L0,13 L-9,24 L-31,23 L-30,29 L-38,29 L-38,27 L-48,28 L-60,34 L-71,45 L-75,52 L-62,52 L-59,51 L-40,51 L-46,58 L-55,69 L-62,82 L-66,99 L-66,120 L-62,137 L-57,148 L-50,159 L-40,170 L-36,174 L-21,183 L-9,189 L-9,220 L-22,221 L-61,221 L-63,219 L-64,216 L-68,213 L-67,211 L-57,212 L-35,217 L-32,218 L-34,212 L-37,210 L-40,203 L-42,202 L-41,197 L-43,195 L-46,197 L-46,193 L-50,197 L-54,195 L-57,193 L-56,198 L-53,199 L-55,203 L-60,202 L-62,199 L-62,193 L-64,193 L-66,206 L-73,204 L-71,203 L-73,200 L-73,197 L-78,196 L-80,193 L-82,192 L-82,190 L-73,190 L-68,189 L-66,185 L-57,188 L-53,188 L-52,186 L-62,184 L-62,183 L-53,184 L-50,185 L-51,182 L-57,179 L-58,176 L-62,178 L-66,176 L-68,172 L-66,167 L-63,167 L-62,163 L-65,161 L-66,158 L-70,161 L-73,161 L-72,165 L-74,165 L-74,167 L-71,167 L-72,171 L-77,173 L-83,163 L-83,161 L-89,159 L-95,156 L-96,153 L-94,153 L-97,148 L-102,147 L-102,145 L-104,145 L-106,141 L-102,137 L-98,138 L-98,136 L-103,133 L-104,135 L-106,135 L-107,128 L-103,126 L-102,121 L-105,120 L-106,111 L-108,117 L-110,120 L-111,123 L-115,122 L-119,119 L-118,116 L-116,116 L-119,113 L-119,111 L-126,111 L-127,108 L-129,106 L-125,105 L-125,107 L-122,106 L-120,108 L-120,106 L-127,102 L-130,103 L-130,100 L-128,100 L-127,95 L-124,96 L-123,98 L-124,94 L-127,92 L-128,88 L-130,87 L-130,85 L-126,85 L-127,77 L-124,76 L-125,80 L-123,81 L-123,84 L-122,92 L-119,93 L-118,84 L-116,81 L-114,72 L-113,70 L-108,69 L-108,56 L-106,59 L-101,68 L-99,68 L-99,70 L-95,70 L-95,65 L-90,58 L-87,53 L-86,53 L-85,63 L-82,63 L-81,59 L-78,58 L-79,53 L-83,54 L-84,53 L-85,44 L-82,44 L-79,41 L-74,38 L-72,32 L-65,28 L-58,22 L-56,22 L-56,20 L-49,19 L-38,13 L-29,10 L-28,5 L-25,6 L-14,6 L-14,4 L-1,1 Z " fill="#25B4D8" transform="translate(240,125)"/>
<path d="M0,0 L2,0 L2,14 L9,11 L13,7 L18,9 L26,16 L36,26 L40,30 L39,34 L27,46 L19,53 L15,56 L7,55 L2,65 L-8,72 L-12,76 L-11,81 L-3,91 L4,99 L4,101 L-11,109 L-13,109 L-13,111 L-23,109 L-31,107 L-32,108 L-30,110 L-37,110 L-35,109 L-35,103 L-31,102 L-29,98 L-37,97 L-39,96 L-46,96 L-49,100 L-45,102 L-39,105 L-40,110 L-45,115 L-52,124 L-62,123 L-82,121 L-105,119 L-104,115 L-103,111 L-104,108 L-100,109 L-100,105 L-107,106 L-105,103 L-106,100 L-108,102 L-108,105 L-108,108 L-112,110 L-115,109 L-114,106 L-112,106 L-110,101 L-113,100 L-111,100 L-113,96 L-111,94 L-102,93 L-101,89 L-91,88 L-89,88 L-89,85 L-80,84 L-76,83 L-76,77 L-74,77 L-73,74 L-71,73 L-69,63 L-71,63 L-71,61 L-75,60 L-73,54 L-65,53 L-64,42 L-65,40 L-65,34 L-62,33 L-61,29 L-61,25 L-61,23 L-59,23 L-58,30 L-42,32 L-42,30 L-36,27 L-38,32 L-29,27 L-25,25 L-21,26 L13,28 L36,30 L26,20 L18,13 L14,11 L9,16 L4,19 L-2,19 L-2,16 L0,16 Z " fill="#492F25" transform="translate(455,231)"/>
<path d="M0,0 L1,0 L4,23 L6,23 L9,34 L13,37 L13,40 L34,39 L35,46 L41,45 L41,44 L49,44 L64,50 L73,58 L80,68 L79,70 L66,60 L58,56 L58,54 L51,54 L55,60 L54,63 L50,56 L37,56 L29,60 L24,65 L19,70 L16,66 L10,65 L13,67 L15,74 L31,82 L40,89 L52,90 L48,100 L47,131 L44,142 L45,149 L46,152 L40,151 L33,159 L18,174 L12,184 L10,189 L9,186 L10,117 L4,117 L9,111 L16,107 L18,107 L19,144 L23,143 L24,138 L24,118 L21,109 L19,108 L18,104 L16,103 L16,101 L10,104 L6,108 L2,110 L2,72 L-1,75 L-6,87 L-9,89 L-13,74 L-17,66 L-24,58 L-24,56 L-29,54 L-36,50 L-35,48 L-47,45 L-53,41 L-53,39 L-45,39 L-32,40 L-24,30 L-24,24 L-21,23 L-20,11 L-14,9 L-14,7 L-5,6 L0,9 L-2,5 L0,5 Z " fill="#62432E" transform="translate(263,108)"/>
<path d="M0,0 L8,5 L24,9 L21,11 L31,17 L39,27 L44,37 L46,47 L45,55 L40,56 L34,48 L33,66 L32,66 L31,33 L16,38 L2,46 L-5,51 L-13,52 L-5,57 L-4,59 L-3,89 L-2,95 L-2,103 L-9,111 L-5,109 L0,114 L22,136 L27,147 L31,159 L32,91 L33,91 L34,117 L35,115 L36,63 L38,63 L39,65 L39,178 L35,177 L28,171 L24,166 L22,165 L21,151 L20,162 L18,161 L18,159 L14,157 L16,155 L1,145 L-9,136 L-17,126 L-24,113 L-28,96 L-28,74 L-22,56 L-15,46 L-7,36 L-6,35 L-9,34 L-9,30 L-27,30 L-30,31 L-44,31 L-39,22 L-27,10 L-16,5 L-6,5 L-6,7 L2,7 Z " fill="#312B29" transform="translate(208,147)"/>
<path d="M0,0 L2,0 L3,3 L33,3 L48,2 L132,2 L134,4 L135,3 L159,3 L165,4 L176,4 L185,5 L186,7 L186,21 L185,40 L182,39 L176,32 L168,22 L167,21 L167,35 L158,35 L158,33 L161,33 L160,12 L159,10 L156,9 L154,23 L155,26 L155,35 L143,34 L144,32 L144,11 L141,10 L140,12 L139,21 L139,34 L129,34 L130,32 L130,21 L129,18 L123,37 L121,34 L114,19 L114,17 L112,17 L112,33 L104,33 L107,16 L107,10 L103,7 L101,11 L101,23 L97,29 L93,32 L83,32 L77,27 L75,23 L75,15 L77,11 L72,17 L69,27 L64,32 L55,35 L44,35 L46,32 L47,10 L52,10 L53,12 L53,26 L49,32 L54,31 L53,28 L61,25 L64,21 L63,14 L59,11 L48,8 L45,6 L41,6 L40,20 L39,24 L29,25 L28,24 L24,30 L20,33 L17,34 L7,34 L7,14 L10,14 L10,30 L19,27 L21,23 L21,17 L17,14 L10,12 L10,10 L5,10 L4,12 L3,11 L2,16 L0,15 L-1,36 L-10,36 L-8,34 L-8,14 L-11,13 L-16,17 L-17,25 L-13,35 L-12,37 L-21,37 L-21,32 L-22,31 L-31,32 L-32,38 L-36,37 L-32,22 L-29,14 L-36,19 L-37,16 L-40,16 L-42,19 L-43,17 L-43,25 L-45,29 L-41,38 L-40,40 L-47,40 L-51,31 L-51,29 L-55,27 L-53,25 L-48,22 L-48,19 L-57,18 L-56,42 L-63,42 L-62,40 L-62,19 L-63,16 L-66,16 L-66,13 L-58,11 L-47,9 L-22,6 L-18,5 L0,5 Z " fill="#CEB673" transform="translate(158,350)"/>
<path d="M0,0 L2,0 L2,25 L6,42 L11,53 L18,64 L28,75 L32,79 L47,88 L59,94 L59,125 L46,126 L7,126 L5,124 L4,121 L0,118 L1,116 L11,117 L33,122 L36,123 L34,117 L31,115 L28,108 L26,107 L27,102 L25,100 L22,102 L22,98 L18,102 L14,100 L11,98 L12,103 L15,104 L13,108 L8,107 L6,104 L6,98 L4,98 L2,111 L-5,109 L-3,108 L-5,105 L-5,102 L-10,101 L-12,98 L-14,97 L-14,95 L-5,95 L0,94 L2,90 L11,93 L15,93 L16,91 L6,89 L6,88 L15,89 L18,90 L17,87 L11,84 L10,81 L6,83 L2,81 L0,77 L2,72 L5,72 L6,68 L3,66 L2,63 L-2,66 L-5,66 L-4,70 L-6,70 L-6,72 L-3,72 L-4,76 L-9,78 L-15,68 L-15,66 L-21,64 L-27,61 L-28,58 L-24,55 L-30,50 L-33,46 L-29,46 L-29,42 L-23,42 L-25,36 L-25,31 L-22,30 L-19,32 L-18,35 L-16,21 L-19,21 L-19,26 L-21,27 L-23,16 L-19,15 L-18,12 L-15,20 L-11,22 L-9,25 L-6,26 L-7,33 L-1,32 L-2,11 L-3,7 L0,7 Z " fill="#97E2EB" transform="translate(172,220)"/>
<path d="M0,0 L9,1 L18,5 L29,5 L31,10 L39,13 L40,15 L47,18 L54,20 L54,22 L61,22 L63,28 L65,29 L65,31 L72,32 L79,35 L80,45 L85,44 L86,48 L88,48 L88,51 L90,51 L93,56 L93,58 L96,59 L98,66 L101,68 L107,58 L108,58 L110,67 L113,71 L111,71 L111,73 L106,74 L105,80 L99,79 L96,73 L94,75 L94,71 L91,71 L92,73 L92,80 L93,85 L97,86 L98,114 L104,116 L103,119 L105,122 L98,127 L96,124 L93,115 L93,111 L91,111 L91,107 L86,118 L81,118 L81,125 L76,127 L71,127 L70,124 L70,106 L74,98 L69,100 L63,82 L60,77 L60,71 L58,71 L57,66 L52,65 L48,58 L40,51 L40,50 L55,49 L66,49 L75,51 L70,43 L65,37 L58,32 L45,27 L38,27 L38,28 L31,28 L30,21 L25,22 L9,22 L7,18 L4,16 L2,5 L0,5 L-1,1 Z " fill="#1EC8E7" transform="translate(267,126)"/>
<path d="M0,0 L7,4 L9,9 L15,11 L16,5 L21,4 L21,2 L23,3 L27,9 L31,29 L34,34 L31,35 L29,34 L30,39 L32,40 L33,47 L27,45 L25,44 L24,46 L17,47 L18,51 L30,50 L34,55 L31,57 L25,56 L22,57 L18,56 L19,59 L14,61 L13,63 L19,61 L22,61 L22,63 L26,62 L27,66 L25,68 L19,68 L17,72 L14,72 L9,76 L11,76 L11,84 L9,84 L9,86 L12,86 L12,84 L14,84 L14,81 L20,80 L20,78 L26,79 L29,81 L28,89 L26,89 L26,87 L24,87 L24,89 L22,89 L21,92 L12,90 L12,92 L10,91 L8,90 L2,92 L3,95 L-2,98 L-4,98 L-5,105 L-7,107 L-6,112 L-8,114 L-6,115 L-7,118 L-12,120 L-12,122 L-10,122 L-11,125 L-16,126 L-16,128 L-23,128 L-23,133 L-26,133 L-26,131 L-28,131 L-29,135 L-32,135 L-35,132 L-35,139 L-36,137 L-38,141 L-43,137 L-45,137 L-47,139 L-47,137 L-50,138 L-50,136 L-53,136 L-53,138 L-60,140 L-61,137 L-64,136 L-62,132 L-62,135 L-59,132 L-58,129 L-55,129 L-55,122 L-54,117 L-48,116 L-47,119 L-44,119 L-44,117 L-41,115 L-41,110 L-37,105 L-35,105 L-34,112 L-33,108 L-28,109 L-28,107 L-30,106 L-31,98 L-33,97 L-29,96 L-30,90 L-27,90 L-25,91 L-23,87 L-21,87 L-18,92 L-18,94 L-13,95 L-13,91 L-14,87 L-13,83 L-11,79 L-7,69 L-5,69 L-4,77 L-2,77 L0,85 L6,86 L6,83 L4,83 L5,77 L2,76 L2,73 L8,68 L5,66 L10,56 L14,52 L12,49 L13,48 L8,46 L7,45 L6,17 L3,16 L1,11 L1,3 Z " fill="#458E9A" transform="translate(357,195)"/>
<path d="M0,0 L7,1 L12,5 L16,6 L15,13 L11,13 L11,26 L10,27 L12,28 L11,38 L11,42 L6,40 L-3,40 L-3,42 L-9,44 L-9,52 L-11,56 L-11,51 L-22,54 L-26,54 L-26,56 L-29,57 L-37,57 L-40,55 L-41,60 L-50,64 L-61,70 L-68,70 L-68,72 L-76,78 L-81,82 L-84,82 L-85,88 L-88,91 L-93,92 L-94,95 L-96,96 L-95,103 L-91,103 L-90,108 L-93,110 L-94,113 L-97,113 L-99,104 L-105,114 L-107,120 L-113,119 L-118,111 L-119,108 L-116,100 L-106,86 L-96,77 L-93,76 L-91,72 L-89,72 L-89,70 L-83,66 L-78,62 L-64,54 L-54,49 L-48,47 L-44,45 L-34,43 L-20,40 L-11,39 L-10,36 L-17,37 L-17,35 L-25,38 L-28,38 L-28,36 L-31,35 L-31,33 L-14,30 L-10,28 L-10,17 L-9,15 L-12,16 L-13,18 L-15,18 L-15,14 L-12,13 L-12,9 L-10,9 L-10,3 L-5,1 L0,2 Z " fill="#0F5180" transform="translate(252,75)"/>
<path d="M0,0 L8,1 L8,3 L14,5 L25,13 L27,16 L20,15 L9,15 L-5,16 L3,23 L6,27 L6,29 L1,28 L-2,26 L8,40 L14,57 L16,71 L18,72 L16,77 L12,97 L11,99 L9,99 L8,104 L1,116 L-8,126 L-10,126 L-10,128 L-23,137 L-31,141 L-33,141 L-33,130 L-24,120 L-16,113 L-7,102 L-5,97 L-7,94 L-6,86 L-4,78 L-3,47 L1,38 L-10,37 L-21,29 L-36,21 L-37,14 L-42,13 L-40,11 L-34,12 L-30,16 L-24,8 L-16,3 L-13,2 L0,2 L4,9 L2,4 Z " fill="#354442" transform="translate(313,161)"/>
<path d="M0,0 L3,0 L4,4 L4,33 L0,29 L-8,18 L-11,18 L-17,22 L-21,28 L-18,29 L-17,66 L-16,70 L-13,72 L-13,74 L-9,76 L-4,81 L-5,45 L-9,39 L-8,37 L-3,42 L3,49 L4,51 L4,133 L3,133 L1,123 L-5,107 L-9,101 L-31,79 L-33,77 L-38,80 L-36,75 L-31,70 L-31,62 L-32,56 L-33,24 L-38,22 L-42,18 L-33,17 L-23,10 L-7,2 Z " fill="#F1D73E" transform="translate(236,180)"/>
<path d="M0,0 L11,4 L27,12 L36,19 L48,20 L44,30 L43,61 L40,72 L41,79 L42,82 L36,81 L29,89 L14,104 L8,114 L6,119 L5,116 L6,47 L0,47 L5,41 L12,37 L14,37 L15,74 L22,73 L23,70 L27,70 L29,56 L29,40 L27,30 L22,24 L12,19 L7,26 L6,26 L5,7 L0,2 Z " fill="#EFD235" transform="translate(267,178)"/>
<path d="M0,0 L8,1 L28,2 L65,7 L67,8 L67,12 L56,11 L55,15 L55,17 L60,24 L61,13 L66,13 L67,15 L68,15 L69,29 L69,47 L55,46 L24,43 L11,42 L9,41 L-3,41 L-5,40 L-29,39 L-68,38 L-103,38 L-104,35 L-99,35 L-98,32 L-89,26 L-89,35 L-22,35 L-18,34 L-15,36 L-10,37 L-6,36 L-3,37 L9,38 L10,35 L17,38 L28,39 L31,38 L38,30 L40,29 L39,40 L51,41 L52,38 L56,40 L57,43 L65,44 L66,38 L60,33 L52,22 L52,35 L46,34 L46,12 L44,11 L51,11 L40,9 L39,16 L39,28 L34,32 L25,32 L19,29 L16,25 L16,12 L12,16 L10,25 L9,31 L1,31 L3,30 L2,9 L0,6 Z " fill="#D2BA87" transform="translate(346,355)"/>
<path d="M0,0 L4,2 L10,9 L15,8 L19,4 L22,11 L26,12 L33,12 L41,3 L42,6 L33,16 L31,16 L32,21 L25,20 L13,20 L16,22 L16,31 L17,36 L43,42 L52,46 L60,49 L62,56 L61,65 L56,63 L41,57 L25,52 L5,48 L-1,47 L-1,49 L-4,48 L-2,47 L-3,39 L-2,34 L8,34 L9,21 L11,21 L11,18 L0,17 L-1,12 L-1,10 L-6,9 L-6,11 L-3,12 L-4,13 L-2,15 L-5,17 L-3,20 L-12,19 L-12,16 L-16,13 L-13,10 L-13,8 L-17,6 L-9,3 L-4,3 L-3,4 Z " fill="#A77750" transform="translate(265,54)"/>
<path d="M0,0 L6,2 L8,4 L8,120 L21,110 L24,106 L25,110 L25,139 L23,140 L1,140 L0,126 L0,7 L-5,3 Z " fill="#E6E2AA" transform="translate(252,205)"/>
<path d="M0,0 L1,0 L4,23 L6,23 L9,34 L13,37 L13,40 L34,39 L35,46 L41,45 L41,44 L49,44 L64,50 L73,58 L80,68 L79,70 L66,60 L58,56 L58,54 L51,54 L55,60 L54,63 L50,56 L37,56 L29,60 L24,65 L20,68 L21,61 L21,55 L24,49 L11,53 L6,55 L7,52 L5,52 L4,55 L-1,58 L1,54 L3,52 L3,46 L2,45 L1,48 L-3,42 L-8,38 L-10,37 L-10,30 L-5,32 L2,38 L7,48 L9,48 L3,38 L-5,31 L-10,28 L-7,24 L0,26 L5,29 L5,24 L-8,23 L-11,21 L-10,19 L-3,20 L1,21 L-1,15 L-9,14 L-9,10 L-4,11 L0,13 L-3,10 L-11,8 L-9,6 L-3,7 L0,9 L-2,5 L0,5 Z " fill="#EADB7B" transform="translate(263,108)"/>
<path d="M0,0 L5,0 L21,13 L28,19 L27,24 L23,28 L20,36 L16,40 L14,40 L13,43 L3,43 L1,41 L1,37 L-1,36 L-1,34 L-6,32 L-13,26 L-17,22 L-23,22 L-21,18 L-8,6 Z " fill="#875E3F" transform="translate(251,10)"/>
<path d="M0,0 L6,1 L9,3 L18,4 L18,6 L20,6 L20,8 L34,9 L34,12 L43,15 L48,16 L48,18 L58,21 L64,25 L64,27 L66,27 L67,31 L70,31 L70,34 L74,35 L76,42 L89,45 L92,51 L97,58 L97,60 L99,60 L100,64 L102,64 L106,68 L104,74 L99,79 L96,76 L94,69 L90,65 L89,61 L87,61 L87,58 L85,58 L84,60 L83,55 L79,55 L78,52 L78,45 L66,42 L64,41 L64,39 L61,38 L60,32 L53,32 L52,30 L45,28 L38,25 L38,23 L29,20 L27,16 L17,16 L8,12 L-2,11 L-3,8 L-3,1 Z " fill="#096AA8" transform="translate(268,116)"/>
<path d="M0,0 L17,1 L29,4 L28,11 L20,27 L9,49 L4,61 L0,65 L-1,41 L-1,29 L-6,24 L-12,16 L-15,6 L-14,3 L-10,5 L-13,6 L-13,9 L-9,11 L-7,14 L-3,13 L-2,17 Z " fill="#BCB7A6" transform="translate(253,406)"/>
<path d="M0,0 L4,0 L5,4 L8,5 L7,8 L14,8 L18,10 L16,11 L16,27 L15,29 L22,28 L26,25 L28,25 L30,21 L34,23 L51,39 L54,42 L29,40 L-5,38 L-11,37 L-14,38 L-15,34 L-23,27 L-25,24 L-19,26 L-11,33 L4,29 L-6,29 L-10,27 L-10,25 L-16,24 L-15,17 L-9,17 L-11,19 L-8,22 L-1,23 L-2,3 Z " fill="#C89C69" transform="translate(439,220)"/>
<path d="M0,0 L3,3 L12,3 L17,6 L17,10 L28,10 L30,15 L31,15 L31,24 L24,28 L28,31 L29,34 L29,41 L26,42 L19,42 L19,39 L21,38 L19,37 L19,26 L17,26 L17,43 L29,42 L32,47 L32,50 L25,49 L17,45 L13,46 L8,47 L4,40 L3,34 L1,34 L1,13 Z " fill="#9B7E68" transform="translate(419,359)"/>
<path d="M0,0 L1,2 L3,2 L6,9 L8,9 L10,13 L5,14 L6,15 L14,13 L20,13 L19,19 L14,24 L6,30 L3,33 L4,38 L12,48 L18,54 L18,56 L7,55 L-7,52 L-15,51 L-11,49 L-8,50 L-8,48 L-10,48 L-11,45 L-12,49 L-14,48 L-14,45 L-16,45 L-16,47 L-18,46 L-17,44 L-26,41 L-25,36 L-15,38 L-12,39 L-9,30 L-5,21 L-1,1 Z " fill="#643E2D" transform="translate(440,274)"/>
<path d="M0,0 L6,2 L16,8 L28,16 L38,25 L53,39 L59,46 L68,59 L77,73 L82,87 L87,101 L92,122 L93,129 L93,140 L89,138 L86,116 L80,95 L75,82 L69,71 L62,60 L53,47 L48,42 L35,29 L22,19 L13,13 L10,13 L9,10 L1,5 Z " fill="#E7C187" transform="translate(327,105)"/>
<path d="M0,0 L2,0 L4,5 L4,8 L8,10 L23,20 L23,22 L25,22 L26,41 L28,42 L29,33 L30,33 L30,69 L29,69 L27,59 L21,43 L17,37 L-5,15 L-7,13 L-12,16 L-10,11 L-5,6 L-3,2 L-3,5 L-1,4 Z " fill="#D58C17" transform="translate(210,244)"/>
<path d="M0,0 L4,0 L9,9 L11,9 L17,25 L24,27 L33,29 L35,31 L33,33 L45,39 L45,41 L19,43 L18,41 L16,45 L14,45 L14,42 L11,42 L12,46 L0,47 L2,43 L6,42 L6,40 L9,37 L8,28 L2,13 L-1,8 L-1,2 Z " fill="#CFA66D" transform="translate(418,165)"/>
<path d="M0,0 L5,5 L9,10 L34,11 L38,13 L34,30 L31,40 L27,38 L25,39 L24,35 L26,33 L26,30 L29,25 L31,25 L33,16 L23,20 L11,26 L10,28 L8,28 L7,26 L-5,26 L-5,23 L2,21 L-4,13 L-7,8 L-2,5 Z " fill="#CEA168" transform="translate(401,131)"/>
<path d="M0,0 L6,5 L7,23 L12,16 L22,21 L28,28 L30,38 L30,54 L27,72 L25,69 L23,69 L22,71 L20,70 L22,63 L22,36 L19,29 L15,26 L10,27 L7,30 L2,31 L1,33 L0,32 Z " fill="#A76014" transform="translate(267,180)"/>
<path d="M0,0 L4,2 L8,4 L10,1 L12,1 L13,4 L16,2 L18,6 L16,6 L18,10 L21,14 L22,18 L26,22 L26,26 L14,24 L-5,20 L-8,21 L-4,26 L-6,28 L-6,26 L-11,24 L-14,23 L-14,17 L-19,11 L-16,11 L-18,6 L-15,5 L-13,11 L-9,13 L-8,14 L-8,6 L-6,1 L-4,1 L-2,10 L3,10 L3,7 L1,6 Z " fill="#577983" transform="translate(182,317)"/>
<path d="M0,0 L12,0 L22,17 L26,22 L30,32 L39,41 L39,42 L27,42 L22,38 L22,36 L18,34 L12,26 L5,15 L0,2 Z " fill="#B58B5D" transform="translate(110,307)"/>
<path d="M0,0 L9,0 L14,2 L18,9 L19,10 L19,16 L15,22 L11,25 L1,25 L-5,20 L-7,16 L-7,8 L-2,1 Z " fill="#EFDA5F" transform="translate(240,357)"/>
<path d="M0,0 L10,2 L15,6 L16,9 L16,21 L11,25 L2,25 L-4,22 L-7,18 L-7,5 L-3,1 Z " fill="#EFD85D" transform="translate(369,362)"/>
<path d="M0,0 L1,0 L0,11 L-5,28 L-8,29 L-6,32 L0,32 L2,33 L2,28 L6,29 L14,39 L20,45 L20,47 L9,46 L-5,43 L-13,42 L-9,40 L-6,41 L-6,39 L-8,39 L-9,36 L-10,40 L-12,39 L-12,36 L-14,36 L-14,38 L-16,37 L-15,35 L-24,32 L-23,27 L-13,29 L-10,30 L-7,21 L-3,12 Z " fill="#B0825B" transform="translate(438,283)"/>
<path d="M0,0 L5,1 L11,8 L12,5 L14,8 L14,14 L1,27 L-6,21 L-9,19 L-11,14 L-10,7 L-3,1 Z " fill="#433C38" transform="translate(253,146)"/>
<path d="M0,0 L5,2 L11,5 L16,18 L21,31 L23,43 L23,61 L21,75 L17,77 L16,73 L15,72 L12,76 L14,67 L18,47 L18,45 L14,27 L9,14 L1,3 Z " fill="#E3CF65" transform="translate(311,187)"/>
<path d="M0,0 L9,0 L17,2 L22,6 L24,9 L24,20 L21,25 L14,29 L9,30 L-2,30 L0,27 L1,5 L6,5 L7,7 L7,21 L3,27 L8,26 L7,23 L15,20 L18,16 L17,9 L13,6 L2,3 Z " fill="#ECC949" transform="translate(204,355)"/>
<path d="M0,0 L11,0 L37,5 L48,9 L61,14 L63,21 L62,30 L57,28 L42,22 L24,16 L28,15 L35,16 L43,16 L46,19 L54,22 L60,27 L60,22 L56,18 L42,12 L24,7 L0,3 Z " fill="#D9B281" transform="translate(264,89)"/>
<path d="M0,0 L1,0 L0,11 L-1,14 L-1,21 L0,23 L5,24 L6,26 L6,32 L-10,33 L-13,35 L-14,41 L-11,45 L-6,46 L-6,43 L-11,43 L-11,38 L-6,34 L3,34 L3,41 L2,43 L4,43 L5,34 L7,36 L6,46 L0,47 L-12,47 L-17,42 L-18,37 L-21,35 L-15,30 L-9,29 L-5,30 L-4,17 L-1,3 Z " fill="#916B52" transform="translate(104,215)"/>
<path d="M0,0 L6,0 L13,6 L14,8 L14,14 L9,20 L5,22 L-1,22 L-8,16 L-9,14 L-9,8 L-4,2 Z " fill="#303B45" transform="translate(251,19)"/>
<path d="M0,0 L3,1 L4,7 L7,7 L8,10 L12,11 L15,9 L17,11 L22,11 L22,13 L18,13 L18,16 L15,16 L15,23 L14,21 L12,25 L7,21 L5,21 L3,23 L3,21 L0,22 L0,20 L-3,20 L-3,22 L-10,24 L-11,21 L-14,20 L-12,16 L-12,19 L-9,16 L-8,13 L-5,13 L-5,6 L-4,1 Z " fill="#4F7382" transform="translate(307,311)"/>
<path d="M0,0 L2,1 L6,18 L9,27 L9,32 L-1,32 L-5,26 L-9,13 L-10,2 L-8,3 L-1,1 Z " fill="#BF9665" transform="translate(110,273)"/>
<path d="M0,0 L7,0 L8,1 L8,19 L8,22 L8,36 L7,39 L-1,39 L-2,30 L-1,29 L-2,21 L0,21 Z " fill="#C7B499" transform="translate(427,363)"/>
<path d="M0,0 L1,2 L5,0 L3,6 L26,7 L46,9 L62,12 L65,14 L64,17 L59,15 L47,13 L42,12 L41,11 L8,9 L-1,9 L-2,7 L-26,7 L-62,5 L-69,3 L-69,2 L-14,4 L-4,5 Z " fill="#B89070" transform="translate(347,344)"/>
<path d="M0,0 L10,0 L10,2 L15,2 L14,5 L23,9 L27,12 L28,8 L32,16 L33,19 L33,26 L28,21 L20,14 L16,12 L0,12 L-1,10 L-6,9 L-4,5 L1,2 Z " fill="#935E3B" transform="translate(192,152)"/>
<path d="M0,0 L6,0 L7,1 L7,10 L2,16 L0,16 L0,18 L-7,19 L-21,19 L-23,17 L-14,13 L-7,7 L-3,1 Z " fill="#AC9F8B" transform="translate(191,375)"/>
<path d="M0,0 L4,1 L12,9 L17,16 L16,20 L16,22 L23,21 L20,23 L13,24 L14,33 L12,34 L12,31 L8,29 L7,26 L10,26 L10,24 L3,24 L2,12 L0,3 Z " fill="#AB7A54" transform="translate(193,52)"/>
<path d="M0,0 L2,3 L6,15 L9,20 L6,21 L4,20 L5,25 L7,26 L8,33 L2,31 L0,30 L-1,32 L-7,33 L-6,28 L-4,14 L-2,13 L-4,10 L-3,2 Z " fill="#5AA975" transform="translate(382,209)"/>
<path d="M0,0 L6,1 L8,4 L5,5 L6,10 L7,16 L8,18 L6,19 L9,22 L7,26 L4,27 L9,30 L8,32 L6,32 L7,37 L6,38 L0,38 L-3,33 L-3,30 L0,30 L0,26 L2,25 L-2,21 L-3,17 L2,10 L0,8 L1,7 L-2,6 Z " fill="#4B9FB4" transform="translate(253,75)"/>
<path d="M0,0 L10,0 L16,4 L18,7 L18,14 L14,20 L10,23 L7,24 L-3,24 L-3,4 L0,4 L0,20 L9,17 L11,13 L11,7 L7,4 L0,2 Z " fill="#EFCD48" transform="translate(168,360)"/>
<path d="M0,0 L5,1 L5,39 L-2,39 L-2,23 L-1,22 L-2,11 L-3,4 L-1,4 Z " fill="#8B7C72" transform="translate(76,362)"/>
<path d="M0,0 L1,0 L1,5 L7,4 L7,3 L14,4 L19,9 L2,10 L-2,12 L0,14 L0,16 L-8,21 L-13,27 L-14,25 L-13,20 L-13,14 L-10,8 L-4,7 L-2,3 Z " fill="#C1853B" transform="translate(297,149)"/>
<path d="M0,0 L4,1 L18,12 L26,19 L25,22 L19,22 L14,27 L10,31 L8,30 L11,23 L11,17 L8,11 L0,6 Z " fill="#D9BD73" transform="translate(253,10)"/>
<path d="M0,0 L11,4 L27,12 L36,19 L48,20 L43,24 L37,26 L25,17 L9,9 L4,6 L0,2 Z " fill="#F2F4D0" transform="translate(267,178)"/>
<path d="M0,0 L4,5 L5,6 L5,42 L1,40 L-4,35 L-3,33 L-2,33 L-1,26 Z " fill="#9A5917" transform="translate(227,219)"/>
<path d="M0,0 L3,1 L11,21 L12,23 L3,23 L3,18 L2,17 L-7,18 L-8,24 L-12,23 L-9,14 L-5,6 L-3,6 L-4,13 L1,14 L-1,6 L1,6 Z " fill="#E0BE48" transform="translate(134,364)"/>
<path d="M0,0 L1,0 L1,27 L-16,25 L-15,19 L-13,19 L-8,10 L-4,11 L-3,13 L-2,14 L-1,3 Z " fill="#E5B36E" transform="translate(388,101)"/>
<path d="M0,0 L7,0 L12,4 L12,11 L8,15 L0,15 L-3,10 L-3,3 Z " fill="#5E3E1D" transform="translate(241,362)"/>
<path d="M0,0 L1,2 L9,1 L11,2 L12,5 L17,4 L17,7 L21,4 L26,9 L26,13 L14,11 L-5,7 L-11,8 L-11,5 L-6,4 L-3,4 L-2,1 Z " fill="#669FB2" transform="translate(182,330)"/>
<path d="M0,0 L3,2 L5,4 L5,11 L2,14 L-8,14 L-11,11 L-11,3 L-5,1 Z " fill="#196A9C" transform="translate(410,246)"/>
<path d="M0,0 L1,0 L1,5 L3,5 L4,9 L5,9 L9,9 L9,16 L7,21 L3,19 L1,16 L3,22 L2,27 L-3,23 L-2,18 L-4,16 L-6,15 L-6,13 L-4,13 L-3,5 L-1,5 Z " fill="#64C0D6" transform="translate(201,304)"/>
<path d="M0,0 L2,0 L5,18 L9,29 L16,41 L28,54 L44,65 L45,67 L40,66 L26,56 L16,46 L9,35 L4,24 L0,9 Z " fill="#B7946A" transform="translate(178,235)"/>
<path d="M0,0 L8,0 L13,5 L14,6 L13,13 L9,16 L1,12 L1,7 L4,7 L4,4 L-3,8 L-4,5 Z " fill="#59DAF0" transform="translate(249,21)"/>
<path d="M0,0 L2,0 L2,14 L9,11 L13,7 L18,9 L26,16 L36,26 L40,31 L36,32 L34,28 L26,20 L18,13 L14,11 L9,16 L4,19 L-2,19 L-2,16 L0,16 Z " fill="#8B6547" transform="translate(455,231)"/>
<path d="M0,0 L1,0 L3,9 L6,13 L4,13 L4,15 L-1,16 L-2,22 L-8,21 L-11,15 L-13,17 L-13,13 L-7,11 L-1,2 Z " fill="#72939F" transform="translate(374,184)"/>
<path d="M0,0 L17,1 L29,4 L28,11 L26,11 L24,13 L20,11 L17,6 L17,4 L15,4 L14,8 L10,8 L10,6 L7,6 L6,4 L4,4 L4,2 L0,1 Z " fill="#7B7870" transform="translate(253,406)"/>
<path d="M0,0 L1,0 L4,23 L6,23 L9,34 L13,37 L12,39 L7,35 L4,31 L5,24 L-8,23 L-11,21 L-10,19 L-3,20 L1,21 L-1,15 L-9,14 L-9,10 L-4,11 L0,13 L-3,10 L-11,8 L-9,6 L-3,7 L0,9 L-2,5 L0,5 Z " fill="#77A4A2" transform="translate(263,108)"/>
<path d="M0,0 L6,0 L11,4 L12,6 L12,12 L8,16 L5,16 L5,12 L0,10 L0,8 L-2,8 L-1,1 Z " fill="#553218" transform="translate(369,367)"/>
<path d="M0,0 L24,0 L29,1 L30,6 L2,6 Z " fill="#EEDEBF" transform="translate(293,353)"/>
<path d="M0,0 L5,1 L4,3 L2,3 L2,6 L6,8 L8,11 L12,10 L13,14 L14,8 L15,8 L16,18 L17,24 L14,26 L9,21 L3,13 L0,3 Z " fill="#828B8D" transform="translate(238,409)"/>
<path d="M0,0 L2,4 L6,5 L5,7 L3,27 L1,23 L-1,6 L0,5 L-8,4 L-11,14 L-12,16 L-14,16 L-15,10 L-11,2 L0,2 Z " fill="#A9915F" transform="translate(293,355)"/>
<path d="M0,0 L7,0 L11,4 L11,9 L8,9 L7,13 L-2,10 L-4,9 L-3,3 Z " fill="#44BBDD" transform="translate(250,150)"/>
<path d="M0,0 L9,0 L10,4 L7,7 L4,8 L9,17 L10,22 L6,17 L2,14 L2,24 L1,24 L0,18 Z " fill="#986A1D" transform="translate(101,368)"/>
<path d="M0,0 L6,0 L6,21 L7,24 L-2,24 L-1,22 Z " fill="#F4DF6F" transform="translate(303,360)"/>
<path d="M0,0 L9,0 L9,7 L7,11 L0,11 L0,9 L-5,9 L-5,4 Z " fill="#36A9C9" transform="translate(98,249)"/>
<path d="M0,0 L6,0 L9,2 L9,5 L19,6 L19,8 L2,7 L-3,9 L-5,11 L-10,11 L-12,7 L-3,5 L-2,1 Z " fill="#A08A77" transform="translate(222,385)"/>
<path d="M0,0 L1,0 L1,24 L-4,24 L-5,3 L-6,1 Z " fill="#E6BF4A" transform="translate(155,361)"/>
<path d="M0,0 L8,0 L8,2 L5,2 L6,6 L2,9 L-6,12 L-10,11 L-11,10 L-11,5 L-9,5 L-9,7 L-6,6 L-5,3 L-3,3 L-3,5 L0,5 L-1,2 Z " fill="#ACE4F0" transform="translate(334,323)"/>
<path d="M0,0 L2,0 L3,2 L5,5 L3,8 L2,13 L-1,13 L-3,17 L-6,18 L-7,14 L-4,10 L-4,7 L-6,5 L-3,1 Z " fill="#3D5467" transform="translate(145,197)"/>
<path d="M0,0 L2,1 L-1,5 L-2,9 L5,10 L9,12 L10,9 L13,9 L13,4 L14,4 L14,12 L10,16 L2,16 L-3,12 L-4,5 Z " fill="#1D6288" transform="translate(248,150)"/>
<path d="M0,0 L7,4 L9,12 L11,17 L10,20 L7,19 L6,17 L3,16 L1,11 L1,3 Z " fill="#3A5A6F" transform="translate(357,195)"/>
<path d="M0,0 L8,0 L11,3 L11,9 L8,12 L4,11 L4,8 L2,8 L0,3 Z " fill="#4B2813" transform="translate(169,364)"/>
<path d="M0,0 L17,0 L18,7 L8,5 L2,5 L0,6 L-2,5 L-2,1 Z " fill="#EADFC3" transform="translate(326,355)"/>
<path d="M0,0 L6,1 L5,8 L3,9 L-8,9 L-12,2 L-8,4 L0,5 Z " fill="#D4A973" transform="translate(439,238)"/>
<path d="M0,0 L2,0 L1,5 L-4,20 L-7,24 L-9,24 L-7,13 L-3,3 Z " fill="#573719" transform="translate(127,364)"/>
<path d="M0,0 L10,2 L20,7 L20,10 L8,7 L0,3 Z " fill="#D0B38D" transform="translate(325,70)"/>
<path d="M0,0 L0,3 L-15,19 L-20,24 L-24,28 L-27,27 L-27,25 L-17,17 L-11,11 L-9,11 L-7,7 L-2,1 Z " fill="#EFBF8A" transform="translate(392,75)"/>
<path d="M0,0 L4,1 L2,5 L-1,7 L-12,8 L-12,6 L-14,5 L-3,1 Z " fill="#7F685B" transform="translate(179,70)"/>
<path d="M0,0 L5,1 L5,3 L7,3 L9,13 L5,14 L0,10 L1,7 L3,7 L1,3 L2,2 Z " fill="#87D2CF" transform="translate(121,234)"/>
<path d="M0,0 L4,2 L5,3 L5,15 L0,10 L-3,7 L-2,3 Z " fill="#5B3B13" transform="translate(331,360)"/>
<path d="M0,0 L8,0 L8,2 L10,2 L10,7 L6,6 L0,2 L2,5 L2,8 L-3,7 L-2,2 Z " fill="#78DFF0" transform="translate(404,249)"/>
<path d="M0,0 L2,0 L2,3 L-1,3 L0,8 L7,11 L7,13 L-1,13 L-4,10 L-6,6 L-5,3 Z " fill="#116C98" transform="translate(251,25)"/>
<path d="M0,0 L8,1 L39,2 L40,0 L53,1 L53,2 L40,3 L1,3 L-1,1 Z " fill="#95A0A0" transform="translate(178,343)"/>
<path d="M0,0 L6,0 L5,6 L4,12 L0,11 Z " fill="#CC915C" transform="translate(275,76)"/>
<path d="M0,0 L1,2 L0,4 L2,5 L2,8 L3,17 L-2,16 L-3,12 L-5,11 L-5,9 L-1,9 L-2,1 Z " fill="#75A77E" transform="translate(115,201)"/>
<path d="M0,0 L2,4 L4,11 L3,16 L-2,12 L-1,7 L-3,5 L-5,3 L0,2 Z " fill="#7C9396" transform="translate(200,315)"/>
<path d="M0,0 L5,2 L9,7 L9,10 L3,8 L0,8 L-1,8 Z " fill="#80D37B" transform="translate(381,232)"/>
<path d="M0,0 L6,0 L5,13 L1,12 Z " fill="#F8E773" transform="translate(349,363)"/>
<path d="M0,0 L2,3 L2,5 L4,5 L6,8 L9,9 L6,12 L0,13 Z " fill="#8C6B36" transform="translate(169,367)"/>
<path d="M0,0 L10,0 L10,2 L13,2 L11,6 L7,7 L0,1 Z " fill="#A2D1DA" transform="translate(345,204)"/>
<path d="M0,0 L4,1 L5,5 L1,8 L-1,12 L-4,8 L-3,3 Z " fill="#B5BEC3" transform="translate(371,193)"/>
<path d="M0,0 L10,3 L11,7 L7,10 L0,2 Z " fill="#CCA16F" transform="translate(144,110)"/>
<path d="M0,0 L1,4 L0,7 L2,7 L5,10 L7,11 L7,15 L2,14 L-2,8 L-1,1 Z " fill="#A98E52" transform="translate(367,368)"/>
<path d="M0,0 L3,2 L0,12 L-1,14 L-3,14 L-4,8 Z " fill="#714814" transform="translate(282,357)"/>
<path d="M0,0 L2,2 L2,5 L-1,6 L-3,10 L-6,9 L-4,8 L-7,7 L-7,2 Z " fill="#85C3D3" transform="translate(330,311)"/>
<path d="M0,0 L4,0 L4,6 L2,10 L-1,10 L-1,8 L-4,8 L-3,5 L-1,4 Z " fill="#8BECF6" transform="translate(102,249)"/>
<path d="M0,0 L14,1 L10,3 L1,1 L1,10 L0,16 L-1,16 L-2,5 Z " fill="#937B4E" transform="translate(386,364)"/>
<path d="M0,0 L7,1 L9,3 L6,5 L8,8 L-1,7 L-1,4 Z " fill="#BB926F" transform="translate(254,66)"/>
<path d="M0,0 L1,2 L9,1 L11,2 L11,4 L9,6 L1,5 L1,3 L-1,3 Z " fill="#97DCEA" transform="translate(182,330)"/>
<path d="M0,0 L7,2 L7,6 L-2,6 L-3,2 Z " fill="#AACDD7" transform="translate(150,203)"/>
<path d="M0,0 L1,0 L2,16 L-7,16 L-7,14 L-4,14 L-4,6 L-3,6 L-3,14 L0,14 Z " fill="#BF9B3A" transform="translate(323,369)"/>
<path d="M0,0 L7,0 L7,4 L3,6 L0,6 Z " fill="#431E06" transform="translate(102,370)"/>
<path d="M0,0 L6,2 L8,7 L3,7 L-1,3 L-5,1 Z " fill="#AC7F49" transform="translate(439,250)"/>
<path d="M0,0 L2,1 L3,6 L3,15 L0,15 Z " fill="#6BB496" transform="translate(135,230)"/>
<path d="M0,0 L7,2 L7,5 L-2,5 L-4,4 L-4,2 Z " fill="#C0E8ED" transform="translate(335,305)"/>
<path d="M0,0 L6,1 L6,7 L3,7 L0,4 Z " fill="#A2FBFE" transform="translate(254,24)"/>
<path d="M0,0 L3,4 L3,9 L-3,9 Z " fill="#5F3907" transform="translate(132,369)"/>
<path d="M0,0 L7,1 L7,3 L9,4 L1,4 L-3,3 L-3,1 Z " fill="#9F7658" transform="translate(81,350)"/>
<path d="M0,0 L7,1 L12,3 L12,4 L2,4 L-1,2 Z " fill="#E6C887" transform="translate(253,127)"/>
<path d="M0,0 L3,1 L4,4 L4,11 L0,15 L0,11 L1,10 L1,2 Z " fill="#785828" transform="translate(113,365)"/>
<path d="M0,0 L4,0 L3,3 L-2,5 L-6,4 L-7,2 Z " fill="#C2AD9C" transform="translate(176,71)"/>
<path d="M0,0 L5,0 L7,4 L10,5 L9,7 L1,3 Z " fill="#8CF0FB" transform="translate(250,151)"/>
<path d="M0,0 L1,0 L3,8 L-9,8 L-9,6 L0,6 Z " fill="#CFB795" transform="translate(407,239)"/>
<path d="M0,0 L3,1 L7,7 L14,8 L14,9 L6,9 L1,4 Z " fill="#BBA07F" transform="translate(86,253)"/>
<path d="M0,0 L2,1 L1,8 L-3,11 L-5,8 L0,6 Z " fill="#388EAC" transform="translate(261,26)"/>
<path d="M0,0 L8,0 L9,2 L1,3 L-2,6 L-4,5 Z " fill="#2E8DB3" transform="translate(249,21)"/>
<path d="M0,0 L1,0 L1,7 L-2,10 L-5,9 L-2,4 L0,4 Z " fill="#295C82" transform="translate(132,185)"/>
<path d="M0,0 L3,3 L3,9 L-2,13 L0,2 Z " fill="#A66F2E" transform="translate(264,151)"/>
<path d="M0,0 L7,1 L8,5 L6,3 L-5,3 L-5,1 Z " fill="#D5A26E" transform="translate(402,154)"/>
<path d="M0,0 L4,0 L5,7 L1,6 L0,1 Z " fill="#68BBD1" transform="translate(253,106)"/>
<path d="M0,0 L7,0 L8,3 L-1,3 Z " fill="#CABDAD" transform="translate(188,376)"/>
<path d="M0,0 L3,1 L-2,8 L-4,8 L-3,3 Z " fill="#5FE5F9" transform="translate(98,249)"/>
<path d="M0,0 L7,1 L10,5 L5,4 L0,1 Z " fill="#625832" transform="translate(304,152)"/>
<path d="M0,0 L2,3 L1,4 L-7,4 L-10,2 L0,2 Z " fill="#C3AE68" transform="translate(293,355)"/>
<path d="M0,0 L2,0 L1,6 L-2,7 L-2,1 Z " fill="#978370" transform="translate(458,287)"/>
<path d="M0,0 L3,1 L1,5 L-5,4 L-2,1 Z " fill="#85D9EF" transform="translate(341,183)"/>
<path d="M0,0 L3,4 L-11,3 L-10,1 L0,2 Z " fill="#8A673C" transform="translate(119,303)"/>
<path d="M0,0 L2,2 L2,5 L-6,5 L-6,3 L0,3 Z " fill="#70D1C8" transform="translate(208,149)"/>
<path d="M0,0 L5,1 L6,4 L0,4 Z " fill="#DFAA71" transform="translate(254,118)"/>
<path d="M0,0 L7,0 L8,4 L-1,2 Z " fill="#956010" transform="translate(103,368)"/>
<path d="M0,0 L4,2 L6,5 L2,6 L0,3 Z " fill="#87CEEC" transform="translate(163,181)"/>
<path d="M0,0 L8,1 L8,3 L2,4 Z " fill="#A07540" transform="translate(313,161)"/>
<path d="M0,0 L3,1 L3,6 L-1,4 Z " fill="#72EAF8" transform="translate(254,157)"/>
<path d="M0,0 L6,0 L5,3 L0,3 Z " fill="#B09F89" transform="translate(189,371)"/>
<path d="M0,0 L3,2 L2,3 L-6,3 L-5,1 Z " fill="#60847F" transform="translate(410,246)"/>
</svg>
